<mxfile host="app.diagrams.net" agent="Mozilla/5.0 (Windows NT 10.0; Win64; x64; rv:133.0) Gecko/20100101 Firefox/133.0" version="25.0.3">
  <diagram id="C5RBs43oDa-KdzZeNtuy" name="Page-1">
    <mxGraphModel dx="1500" dy="797" grid="1" gridSize="10" guides="1" tooltips="1" connect="1" arrows="1" fold="1" page="1" pageScale="1" pageWidth="827" pageHeight="1169" math="0" shadow="0">
      <root>
        <mxCell id="WIyWlLk6GJQsqaUBKTNV-0" />
        <mxCell id="WIyWlLk6GJQsqaUBKTNV-1" parent="WIyWlLk6GJQsqaUBKTNV-0" />
        <mxCell id="owQdMSofG2TAi0h-iWOR-3" style="edgeStyle=orthogonalEdgeStyle;rounded=0;orthogonalLoop=1;jettySize=auto;html=1;entryX=0.5;entryY=0;entryDx=0;entryDy=0;" edge="1" parent="WIyWlLk6GJQsqaUBKTNV-1" source="owQdMSofG2TAi0h-iWOR-0" target="owQdMSofG2TAi0h-iWOR-1">
          <mxGeometry relative="1" as="geometry" />
        </mxCell>
        <mxCell id="owQdMSofG2TAi0h-iWOR-0" value="Start" style="ellipse;whiteSpace=wrap;html=1;" vertex="1" parent="WIyWlLk6GJQsqaUBKTNV-1">
          <mxGeometry x="190" y="20" width="90" height="40" as="geometry" />
        </mxCell>
        <mxCell id="owQdMSofG2TAi0h-iWOR-4" style="edgeStyle=orthogonalEdgeStyle;rounded=0;orthogonalLoop=1;jettySize=auto;html=1;exitX=0.5;exitY=1;exitDx=0;exitDy=0;entryX=0.5;entryY=0;entryDx=0;entryDy=0;" edge="1" parent="WIyWlLk6GJQsqaUBKTNV-1" source="owQdMSofG2TAi0h-iWOR-1" target="owQdMSofG2TAi0h-iWOR-2">
          <mxGeometry relative="1" as="geometry" />
        </mxCell>
        <mxCell id="owQdMSofG2TAi0h-iWOR-1" value="Run Docker Containers" style="rounded=0;whiteSpace=wrap;html=1;" vertex="1" parent="WIyWlLk6GJQsqaUBKTNV-1">
          <mxGeometry x="175" y="90" width="120" height="40" as="geometry" />
        </mxCell>
        <mxCell id="owQdMSofG2TAi0h-iWOR-6" style="edgeStyle=orthogonalEdgeStyle;rounded=0;orthogonalLoop=1;jettySize=auto;html=1;entryX=0.5;entryY=0;entryDx=0;entryDy=0;" edge="1" parent="WIyWlLk6GJQsqaUBKTNV-1" source="owQdMSofG2TAi0h-iWOR-2" target="owQdMSofG2TAi0h-iWOR-5">
          <mxGeometry relative="1" as="geometry" />
        </mxCell>
        <mxCell id="owQdMSofG2TAi0h-iWOR-2" value="Fluentd starts" style="rounded=0;whiteSpace=wrap;html=1;" vertex="1" parent="WIyWlLk6GJQsqaUBKTNV-1">
          <mxGeometry x="175" y="160" width="120" height="40" as="geometry" />
        </mxCell>
        <mxCell id="owQdMSofG2TAi0h-iWOR-10" style="edgeStyle=orthogonalEdgeStyle;rounded=0;orthogonalLoop=1;jettySize=auto;html=1;entryX=0.5;entryY=0;entryDx=0;entryDy=0;" edge="1" parent="WIyWlLk6GJQsqaUBKTNV-1" source="owQdMSofG2TAi0h-iWOR-5" target="owQdMSofG2TAi0h-iWOR-9">
          <mxGeometry relative="1" as="geometry" />
        </mxCell>
        <mxCell id="owQdMSofG2TAi0h-iWOR-12" style="edgeStyle=orthogonalEdgeStyle;rounded=0;orthogonalLoop=1;jettySize=auto;html=1;exitX=0;exitY=0.5;exitDx=0;exitDy=0;entryX=0;entryY=0.5;entryDx=0;entryDy=0;" edge="1" parent="WIyWlLk6GJQsqaUBKTNV-1" source="owQdMSofG2TAi0h-iWOR-5" target="owQdMSofG2TAi0h-iWOR-2">
          <mxGeometry relative="1" as="geometry">
            <Array as="points">
              <mxPoint x="120" y="280" />
              <mxPoint x="120" y="180" />
            </Array>
          </mxGeometry>
        </mxCell>
        <mxCell id="owQdMSofG2TAi0h-iWOR-5" value="Status:Active" style="rhombus;whiteSpace=wrap;html=1;" vertex="1" parent="WIyWlLk6GJQsqaUBKTNV-1">
          <mxGeometry x="195" y="240" width="80" height="80" as="geometry" />
        </mxCell>
        <mxCell id="owQdMSofG2TAi0h-iWOR-14" style="edgeStyle=orthogonalEdgeStyle;rounded=0;orthogonalLoop=1;jettySize=auto;html=1;exitX=0.5;exitY=1;exitDx=0;exitDy=0;entryX=0.5;entryY=0;entryDx=0;entryDy=0;" edge="1" parent="WIyWlLk6GJQsqaUBKTNV-1" source="owQdMSofG2TAi0h-iWOR-9" target="owQdMSofG2TAi0h-iWOR-13">
          <mxGeometry relative="1" as="geometry" />
        </mxCell>
        <mxCell id="owQdMSofG2TAi0h-iWOR-9" value="Opensearch Starts" style="rounded=0;whiteSpace=wrap;html=1;" vertex="1" parent="WIyWlLk6GJQsqaUBKTNV-1">
          <mxGeometry x="175" y="370" width="120" height="40" as="geometry" />
        </mxCell>
        <mxCell id="owQdMSofG2TAi0h-iWOR-15" style="edgeStyle=orthogonalEdgeStyle;rounded=0;orthogonalLoop=1;jettySize=auto;html=1;" edge="1" parent="WIyWlLk6GJQsqaUBKTNV-1" source="owQdMSofG2TAi0h-iWOR-13">
          <mxGeometry relative="1" as="geometry">
            <mxPoint x="235" y="560" as="targetPoint" />
          </mxGeometry>
        </mxCell>
        <mxCell id="owQdMSofG2TAi0h-iWOR-20" style="edgeStyle=orthogonalEdgeStyle;rounded=0;orthogonalLoop=1;jettySize=auto;html=1;entryX=0;entryY=0.5;entryDx=0;entryDy=0;" edge="1" parent="WIyWlLk6GJQsqaUBKTNV-1" source="owQdMSofG2TAi0h-iWOR-13" target="owQdMSofG2TAi0h-iWOR-9">
          <mxGeometry relative="1" as="geometry">
            <Array as="points">
              <mxPoint x="110" y="480" />
              <mxPoint x="110" y="390" />
            </Array>
          </mxGeometry>
        </mxCell>
        <mxCell id="owQdMSofG2TAi0h-iWOR-13" value="Status:Active" style="rhombus;whiteSpace=wrap;html=1;" vertex="1" parent="WIyWlLk6GJQsqaUBKTNV-1">
          <mxGeometry x="195" y="440" width="80" height="80" as="geometry" />
        </mxCell>
        <mxCell id="owQdMSofG2TAi0h-iWOR-21" style="edgeStyle=orthogonalEdgeStyle;rounded=0;orthogonalLoop=1;jettySize=auto;html=1;entryX=0.5;entryY=0;entryDx=0;entryDy=0;" edge="1" parent="WIyWlLk6GJQsqaUBKTNV-1" source="owQdMSofG2TAi0h-iWOR-16" target="owQdMSofG2TAi0h-iWOR-18">
          <mxGeometry relative="1" as="geometry" />
        </mxCell>
        <mxCell id="owQdMSofG2TAi0h-iWOR-16" value="Grafana Starts" style="rounded=0;whiteSpace=wrap;html=1;" vertex="1" parent="WIyWlLk6GJQsqaUBKTNV-1">
          <mxGeometry x="175" y="560" width="120" height="40" as="geometry" />
        </mxCell>
        <mxCell id="owQdMSofG2TAi0h-iWOR-22" style="edgeStyle=orthogonalEdgeStyle;rounded=0;orthogonalLoop=1;jettySize=auto;html=1;entryX=0;entryY=0.5;entryDx=0;entryDy=0;" edge="1" parent="WIyWlLk6GJQsqaUBKTNV-1" source="owQdMSofG2TAi0h-iWOR-18" target="owQdMSofG2TAi0h-iWOR-16">
          <mxGeometry relative="1" as="geometry">
            <Array as="points">
              <mxPoint x="110" y="670" />
              <mxPoint x="110" y="580" />
            </Array>
          </mxGeometry>
        </mxCell>
        <mxCell id="owQdMSofG2TAi0h-iWOR-24" style="edgeStyle=orthogonalEdgeStyle;rounded=0;orthogonalLoop=1;jettySize=auto;html=1;exitX=1;exitY=0.5;exitDx=0;exitDy=0;" edge="1" parent="WIyWlLk6GJQsqaUBKTNV-1" source="owQdMSofG2TAi0h-iWOR-18" target="owQdMSofG2TAi0h-iWOR-23">
          <mxGeometry relative="1" as="geometry" />
        </mxCell>
        <mxCell id="owQdMSofG2TAi0h-iWOR-18" value="Status:Active" style="rhombus;whiteSpace=wrap;html=1;" vertex="1" parent="WIyWlLk6GJQsqaUBKTNV-1">
          <mxGeometry x="195" y="630" width="80" height="80" as="geometry" />
        </mxCell>
        <mxCell id="owQdMSofG2TAi0h-iWOR-41" style="edgeStyle=orthogonalEdgeStyle;rounded=0;orthogonalLoop=1;jettySize=auto;html=1;entryX=0;entryY=0.5;entryDx=0;entryDy=0;" edge="1" parent="WIyWlLk6GJQsqaUBKTNV-1" source="owQdMSofG2TAi0h-iWOR-23" target="owQdMSofG2TAi0h-iWOR-39">
          <mxGeometry relative="1" as="geometry" />
        </mxCell>
        <mxCell id="owQdMSofG2TAi0h-iWOR-23" value="Logs are collected using fluentd" style="rounded=0;whiteSpace=wrap;html=1;" vertex="1" parent="WIyWlLk6GJQsqaUBKTNV-1">
          <mxGeometry x="320" y="650" width="120" height="40" as="geometry" />
        </mxCell>
        <mxCell id="owQdMSofG2TAi0h-iWOR-31" style="edgeStyle=orthogonalEdgeStyle;rounded=0;orthogonalLoop=1;jettySize=auto;html=1;entryX=0.5;entryY=1;entryDx=0;entryDy=0;" edge="1" parent="WIyWlLk6GJQsqaUBKTNV-1" source="owQdMSofG2TAi0h-iWOR-27" target="owQdMSofG2TAi0h-iWOR-29">
          <mxGeometry relative="1" as="geometry" />
        </mxCell>
        <mxCell id="owQdMSofG2TAi0h-iWOR-27" value="Logs are parsed" style="rounded=0;whiteSpace=wrap;html=1;" vertex="1" parent="WIyWlLk6GJQsqaUBKTNV-1">
          <mxGeometry x="620" y="650" width="120" height="40" as="geometry" />
        </mxCell>
        <mxCell id="owQdMSofG2TAi0h-iWOR-32" style="edgeStyle=orthogonalEdgeStyle;rounded=0;orthogonalLoop=1;jettySize=auto;html=1;entryX=0.417;entryY=0;entryDx=0;entryDy=0;entryPerimeter=0;" edge="1" parent="WIyWlLk6GJQsqaUBKTNV-1" source="owQdMSofG2TAi0h-iWOR-29" target="owQdMSofG2TAi0h-iWOR-39">
          <mxGeometry relative="1" as="geometry">
            <mxPoint x="510" y="650" as="targetPoint" />
          </mxGeometry>
        </mxCell>
        <mxCell id="owQdMSofG2TAi0h-iWOR-35" style="edgeStyle=orthogonalEdgeStyle;rounded=0;orthogonalLoop=1;jettySize=auto;html=1;entryX=0.5;entryY=1;entryDx=0;entryDy=0;" edge="1" parent="WIyWlLk6GJQsqaUBKTNV-1" source="owQdMSofG2TAi0h-iWOR-29" target="owQdMSofG2TAi0h-iWOR-34">
          <mxGeometry relative="1" as="geometry" />
        </mxCell>
        <mxCell id="owQdMSofG2TAi0h-iWOR-29" value="&lt;div&gt;&lt;b&gt;&lt;font style=&quot;font-size: 10px;&quot;&gt;parsed logs&amp;nbsp;&lt;/font&gt;&lt;/b&gt;&lt;/div&gt;&lt;div&gt;&lt;b&gt;&lt;font style=&quot;font-size: 10px;&quot;&gt;are visible in opensearch&lt;/font&gt;&lt;/b&gt;&lt;/div&gt;" style="rhombus;whiteSpace=wrap;html=1;align=center;" vertex="1" parent="WIyWlLk6GJQsqaUBKTNV-1">
          <mxGeometry x="630" y="510" width="100" height="90" as="geometry" />
        </mxCell>
        <mxCell id="owQdMSofG2TAi0h-iWOR-37" value="" style="edgeStyle=orthogonalEdgeStyle;rounded=0;orthogonalLoop=1;jettySize=auto;html=1;" edge="1" parent="WIyWlLk6GJQsqaUBKTNV-1" source="owQdMSofG2TAi0h-iWOR-34" target="owQdMSofG2TAi0h-iWOR-36">
          <mxGeometry relative="1" as="geometry" />
        </mxCell>
        <mxCell id="owQdMSofG2TAi0h-iWOR-34" value="Events caused by malwares" style="rounded=0;whiteSpace=wrap;html=1;" vertex="1" parent="WIyWlLk6GJQsqaUBKTNV-1">
          <mxGeometry x="620" y="430" width="120" height="40" as="geometry" />
        </mxCell>
        <mxCell id="owQdMSofG2TAi0h-iWOR-54" style="edgeStyle=orthogonalEdgeStyle;rounded=0;orthogonalLoop=1;jettySize=auto;html=1;entryX=0.5;entryY=1;entryDx=0;entryDy=0;" edge="1" parent="WIyWlLk6GJQsqaUBKTNV-1" source="owQdMSofG2TAi0h-iWOR-36" target="owQdMSofG2TAi0h-iWOR-38">
          <mxGeometry relative="1" as="geometry" />
        </mxCell>
        <mxCell id="owQdMSofG2TAi0h-iWOR-36" value="&lt;font style=&quot;font-size: 11px;&quot;&gt;&lt;font&gt;Meta alert is created following multiple events&lt;/font&gt;&lt;/font&gt;" style="rounded=0;whiteSpace=wrap;html=1;" vertex="1" parent="WIyWlLk6GJQsqaUBKTNV-1">
          <mxGeometry x="620" y="360" width="120" height="40" as="geometry" />
        </mxCell>
        <mxCell id="owQdMSofG2TAi0h-iWOR-44" style="edgeStyle=orthogonalEdgeStyle;rounded=0;orthogonalLoop=1;jettySize=auto;html=1;entryX=0.5;entryY=1;entryDx=0;entryDy=0;" edge="1" parent="WIyWlLk6GJQsqaUBKTNV-1" source="owQdMSofG2TAi0h-iWOR-38" target="owQdMSofG2TAi0h-iWOR-43">
          <mxGeometry relative="1" as="geometry" />
        </mxCell>
        <mxCell id="owQdMSofG2TAi0h-iWOR-38" value="&lt;font style=&quot;font-size: 11px;&quot;&gt;&lt;font&gt;Meta alert is created following multiple events&lt;/font&gt;&lt;/font&gt;" style="rounded=0;whiteSpace=wrap;html=1;" vertex="1" parent="WIyWlLk6GJQsqaUBKTNV-1">
          <mxGeometry x="620" y="290" width="120" height="40" as="geometry" />
        </mxCell>
        <mxCell id="owQdMSofG2TAi0h-iWOR-60" style="edgeStyle=orthogonalEdgeStyle;rounded=0;orthogonalLoop=1;jettySize=auto;html=1;entryX=0;entryY=0.5;entryDx=0;entryDy=0;" edge="1" parent="WIyWlLk6GJQsqaUBKTNV-1" source="owQdMSofG2TAi0h-iWOR-39" target="owQdMSofG2TAi0h-iWOR-27">
          <mxGeometry relative="1" as="geometry" />
        </mxCell>
        <mxCell id="owQdMSofG2TAi0h-iWOR-39" value="&lt;div&gt;Logs are Aggregated&lt;/div&gt;&lt;div&gt;in Opensearch&lt;br&gt;&lt;/div&gt;" style="rounded=0;whiteSpace=wrap;html=1;" vertex="1" parent="WIyWlLk6GJQsqaUBKTNV-1">
          <mxGeometry x="470" y="650" width="120" height="40" as="geometry" />
        </mxCell>
        <mxCell id="owQdMSofG2TAi0h-iWOR-47" style="edgeStyle=orthogonalEdgeStyle;rounded=0;orthogonalLoop=1;jettySize=auto;html=1;entryX=0.5;entryY=1;entryDx=0;entryDy=0;" edge="1" parent="WIyWlLk6GJQsqaUBKTNV-1" source="owQdMSofG2TAi0h-iWOR-43" target="owQdMSofG2TAi0h-iWOR-45">
          <mxGeometry relative="1" as="geometry" />
        </mxCell>
        <mxCell id="owQdMSofG2TAi0h-iWOR-43" value="Alert is raised in communication channel" style="rounded=0;whiteSpace=wrap;html=1;" vertex="1" parent="WIyWlLk6GJQsqaUBKTNV-1">
          <mxGeometry x="620" y="220" width="120" height="40" as="geometry" />
        </mxCell>
        <mxCell id="owQdMSofG2TAi0h-iWOR-50" style="edgeStyle=orthogonalEdgeStyle;rounded=0;orthogonalLoop=1;jettySize=auto;html=1;entryX=0.5;entryY=1;entryDx=0;entryDy=0;" edge="1" parent="WIyWlLk6GJQsqaUBKTNV-1" source="owQdMSofG2TAi0h-iWOR-45" target="owQdMSofG2TAi0h-iWOR-51">
          <mxGeometry relative="1" as="geometry">
            <mxPoint x="680" y="160" as="targetPoint" />
          </mxGeometry>
        </mxCell>
        <mxCell id="owQdMSofG2TAi0h-iWOR-45" value="Dashboards are created in grafana" style="rounded=0;whiteSpace=wrap;html=1;" vertex="1" parent="WIyWlLk6GJQsqaUBKTNV-1">
          <mxGeometry x="620" y="150" width="120" height="40" as="geometry" />
        </mxCell>
        <mxCell id="owQdMSofG2TAi0h-iWOR-52" style="edgeStyle=orthogonalEdgeStyle;rounded=0;orthogonalLoop=1;jettySize=auto;html=1;entryX=0.5;entryY=1;entryDx=0;entryDy=0;" edge="1" parent="WIyWlLk6GJQsqaUBKTNV-1" source="owQdMSofG2TAi0h-iWOR-51" target="owQdMSofG2TAi0h-iWOR-53">
          <mxGeometry relative="1" as="geometry">
            <mxPoint x="680" y="70" as="targetPoint" />
          </mxGeometry>
        </mxCell>
        <mxCell id="owQdMSofG2TAi0h-iWOR-51" value="Malware report is generated" style="rounded=0;whiteSpace=wrap;html=1;" vertex="1" parent="WIyWlLk6GJQsqaUBKTNV-1">
          <mxGeometry x="620" y="80" width="120" height="40" as="geometry" />
        </mxCell>
        <mxCell id="owQdMSofG2TAi0h-iWOR-53" value="End" style="ellipse;whiteSpace=wrap;html=1;" vertex="1" parent="WIyWlLk6GJQsqaUBKTNV-1">
          <mxGeometry x="635" y="20" width="90" height="40" as="geometry" />
        </mxCell>
        <mxCell id="owQdMSofG2TAi0h-iWOR-56" value="Yes" style="text;html=1;align=center;verticalAlign=middle;whiteSpace=wrap;rounded=0;" vertex="1" parent="WIyWlLk6GJQsqaUBKTNV-1">
          <mxGeometry x="230" y="330" width="60" height="30" as="geometry" />
        </mxCell>
        <mxCell id="owQdMSofG2TAi0h-iWOR-57" value="Yes" style="text;html=1;align=center;verticalAlign=middle;whiteSpace=wrap;rounded=0;" vertex="1" parent="WIyWlLk6GJQsqaUBKTNV-1">
          <mxGeometry x="230" y="525" width="60" height="30" as="geometry" />
        </mxCell>
        <mxCell id="owQdMSofG2TAi0h-iWOR-58" value="Yes" style="text;html=1;align=center;verticalAlign=middle;whiteSpace=wrap;rounded=0;" vertex="1" parent="WIyWlLk6GJQsqaUBKTNV-1">
          <mxGeometry x="260" y="640" width="60" height="30" as="geometry" />
        </mxCell>
        <mxCell id="owQdMSofG2TAi0h-iWOR-59" value="Yes" style="text;html=1;align=center;verticalAlign=middle;whiteSpace=wrap;rounded=0;" vertex="1" parent="WIyWlLk6GJQsqaUBKTNV-1">
          <mxGeometry x="665" y="480" width="60" height="30" as="geometry" />
        </mxCell>
        <mxCell id="owQdMSofG2TAi0h-iWOR-62" value="No" style="text;html=1;align=center;verticalAlign=middle;whiteSpace=wrap;rounded=0;" vertex="1" parent="WIyWlLk6GJQsqaUBKTNV-1">
          <mxGeometry x="135" y="250" width="60" height="30" as="geometry" />
        </mxCell>
        <mxCell id="owQdMSofG2TAi0h-iWOR-63" value="No" style="text;html=1;align=center;verticalAlign=middle;whiteSpace=wrap;rounded=0;" vertex="1" parent="WIyWlLk6GJQsqaUBKTNV-1">
          <mxGeometry x="135" y="450" width="60" height="30" as="geometry" />
        </mxCell>
        <mxCell id="owQdMSofG2TAi0h-iWOR-64" value="No" style="text;html=1;align=center;verticalAlign=middle;whiteSpace=wrap;rounded=0;" vertex="1" parent="WIyWlLk6GJQsqaUBKTNV-1">
          <mxGeometry x="135" y="640" width="60" height="30" as="geometry" />
        </mxCell>
        <mxCell id="owQdMSofG2TAi0h-iWOR-65" value="No" style="text;html=1;align=center;verticalAlign=middle;whiteSpace=wrap;rounded=0;" vertex="1" parent="WIyWlLk6GJQsqaUBKTNV-1">
          <mxGeometry x="560" y="525" width="60" height="30" as="geometry" />
        </mxCell>
      </root>
    </mxGraphModel>
  </diagram>
</mxfile>
